<svg version="1.1" id="Layer_1" xmlns="http://www.w3.org/2000/svg" x="0" y="0" viewBox="0 0 366 250" style="enable-background:new 0 0 366 250" xml:space="preserve"><style>.st0{fill:#f47a20}.st1{fill:#493291}.st2{fill:#d72027}.st3{fill-rule:evenodd;clip-rule:evenodd;fill:#fff}.st4{fill:#172b54}.st5{clip-path:url(#SVGID_2_)}.st6{clip-path:url(#SVGID_4_)}.st7{clip-path:url(#SVGID_7_)}.st8{clip-path:url(#SVGID_8_)}.st9{clip-path:url(#SVGID_13_)}.st10{clip-path:url(#SVGID_14_)}.st11{clip-path:url(#SVGID_19_)}.st12{clip-path:url(#SVGID_20_)}.st13{clip-path:url(#SVGID_25_)}.st14{clip-path:url(#SVGID_26_)}.st15{clip-path:url(#SVGID_31_)}.st16{clip-path:url(#SVGID_32_)}.st17{clip-path:url(#SVGID_37_)}.st18{clip-path:url(#SVGID_38_)}.st19{clip-path:url(#SVGID_44_)}.st20{clip-path:url(#SVGID_45_)}.st21{clip-path:url(#SVGID_46_)}.st22{fill:#ef5c23}.st23{fill:#0082ca}.st24{clip-path:url(#SVGID_51_)}.st25{clip-path:url(#SVGID_52_)}.st26{clip-path:url(#SVGID_57_)}.st27{clip-path:url(#SVGID_58_)}.st28{clip-path:url(#SVGID_63_)}.st29{clip-path:url(#SVGID_64_)}.st30{clip-path:url(#SVGID_69_)}.st31{clip-path:url(#SVGID_70_)}.st32{clip-path:url(#SVGID_75_)}.st33{clip-path:url(#SVGID_76_)}.st34{clip-path:url(#SVGID_81_)}.st35{clip-path:url(#SVGID_82_)}.st36{clip-path:url(#SVGID_88_)}.st37{clip-path:url(#SVGID_89_)}.st38{clip-path:url(#SVGID_90_)}.st39{fill:#007cc3}.st40{fill:#8c734b}.st41{fill:#006241}.st42{clip-path:url(#SVGID_94_)}.st43,.st44,.st45{clip-path:url(#SVGID_96_);fill:#28294e}.st44,.st45{fill:#fff}.st45{fill:none;stroke:#28294e;stroke-width:.2723}.st46{clip-path:url(#SVGID_98_)}.st47,.st48,.st49{clip-path:url(#SVGID_100_);fill:#28294e}.st48,.st49{fill:#fff}.st49{fill:none;stroke:#28294e;stroke-width:.2723}.st50{fill:#006937}.st51{fill:#cb9700}.st52{fill:#002d74}.st53{fill:#e04403}.st54,.st55{fill:#939598}.st55,.st56{clip-path:url(#SVGID_102_)}.st56,.st57{fill:#003976}.st58{fill:#d71920}.st59{fill:#00984a}.st60,.st61{clip-path:url(#SVGID_104_);fill:#939598}.st61{fill:#003976}.st62{fill:#00539f;stroke:#00539f;stroke-width:1.0055;stroke-miterlimit:3.8637}.st63{fill-rule:evenodd;clip-rule:evenodd;fill:#00539f}.st64{fill:none;stroke:#00539f;stroke-width:1.0055;stroke-miterlimit:3.8637}.st65{fill:#00539f}.st66,.st67{fill:none;stroke:#000;stroke-width:1.2646;stroke-miterlimit:3.8637}.st67{stroke-width:.5269}.st68{fill-rule:evenodd;clip-rule:evenodd}.st69{fill:#fff}.st70,.st71{stroke:#000;stroke-miterlimit:3.8637}.st70{fill:#fff200;stroke-width:.8867}.st71{stroke-width:.1618}.st72{fill:none}.st72,.st73{stroke:#000;stroke-width:.2108;stroke-miterlimit:3.8637}.st74,.st75,.st76{fill-rule:evenodd;clip-rule:evenodd}.st74{stroke:#000;stroke-width:.2108;stroke-miterlimit:3.8637}.st75,.st76{fill:#fff200}.st76{fill:#ffe700}.st77{fill:#b1b3b6}.st78{clip-path:url(#SVGID_106_);fill:none;stroke:#b1b3b6;stroke-width:1.8277;stroke-miterlimit:3.8637}.st79{fill:#ed1c24}.st80,.st81,.st82{fill:none;stroke:#ed1c24;stroke-width:1.3708;stroke-miterlimit:3.8637}.st81,.st82{stroke:#007cc3}.st82{clip-path:url(#SVGID_108_);stroke:#b1b3b6;stroke-width:1.8277}.st83{fill:url(#)}.st84,.st85{fill:none;stroke:#231f20;stroke-width:1.0577;stroke-miterlimit:10}.st85{stroke-width:1.4102}.st86{fill-rule:evenodd;clip-rule:evenodd;fill:#9b8181}.st87{fill:none;stroke:#4f3939;stroke-width:.7051;stroke-miterlimit:10}.st88,.st89,.st90{fill-rule:evenodd;clip-rule:evenodd;fill:#513a3a}.st89,.st90{fill:#ccae9b}.st90{fill:#da2f3d}.st91{fill:none;stroke:#932029;stroke-width:1.4102;stroke-miterlimit:10}.st92,.st93{fill-rule:evenodd;clip-rule:evenodd;fill:#c02126}.st93{fill:#f16246}.st94{fill:#9b8181}.st95,.st96,.st97{fill:none;stroke:#4f3939;stroke-width:.5288;stroke-miterlimit:10}.st96,.st97{stroke-width:1.0577}.st97{stroke-width:.3526}.st98{fill:#624c4c}.st99{fill-rule:evenodd;clip-rule:evenodd;fill:#c08a7a}.st100{fill:none;stroke:#9b8181;stroke-width:.7051;stroke-miterlimit:10}.st101{fill:#00773d}.st102,.st103{fill:none;stroke:#0a4c29;stroke-width:1.4102;stroke-miterlimit:10}.st103{stroke-width:.7051}.st104,.st105{clip-path:url(#SVGID_110_);fill:#00773d}.st105{fill:none;stroke:#0a4c29;stroke-width:.7051;stroke-miterlimit:10}.st106{fill:#00994a}.st107{fill:#22985c}.st108,.st109,.st110{clip-path:url(#SVGID_112_)}.st108{fill:none;stroke:#0a4c29;stroke-width:.7051;stroke-miterlimit:10}.st109,.st110{fill:#00994a}.st110{fill:none;stroke:#0a4c29;stroke-width:1.4102;stroke-miterlimit:10}.st111,.st112{clip-path:url(#SVGID_114_);fill:#00994a}.st112{fill:none;stroke:#0a4c29;stroke-width:.7051;stroke-miterlimit:10}.st113,.st114{clip-path:url(#SVGID_116_);fill:#00773d}.st114{fill:none;stroke:#0a4c29;stroke-width:.7051;stroke-miterlimit:10}.st115,.st116,.st117{clip-path:url(#SVGID_118_)}.st115{fill:none;stroke:#0a4c29;stroke-width:.7051;stroke-miterlimit:10}.st116,.st117{fill:#00994a}.st117{fill:none;stroke:#0a4c29;stroke-width:1.4102;stroke-miterlimit:10}.st118,.st119{clip-path:url(#SVGID_120_);fill:#00994a}.st119{fill:none;stroke:#0a4c29;stroke-width:.7051;stroke-miterlimit:10}.st120{fill:#cccccb}.st120,.st121{clip-path:url(#SVGID_122_)}.st122{fill:#a6a5a5}.st122,.st123{clip-path:url(#SVGID_126_)}.st124{fill:#333}.st124,.st125{clip-path:url(#SVGID_130_)}.st126{fill:#cccccb}.st126,.st127{clip-path:url(#SVGID_134_)}.st128{fill:gray}.st128,.st129{clip-path:url(#SVGID_138_)}.st130{fill:#333}.st130,.st131{clip-path:url(#SVGID_142_)}.st132{fill:#f2f2f3}.st132,.st133{clip-path:url(#SVGID_154_)}.st134{fill:#7e7e7e}.st135{fill:#fff}.st135,.st136{clip-path:url(#SVGID_158_)}.st137{fill:#dad9d9}.st137,.st138{clip-path:url(#SVGID_162_)}.st139{fill:#bfbfbf}.st139,.st140{clip-path:url(#SVGID_166_)}.st141{clip-path:url(#SVGID_178_)}.st142{clip-path:url(#SVGID_182_)}.st143{fill:#4d4d4e}.st143,.st144{clip-path:url(#SVGID_186_)}.st145{clip-path:url(#SVGID_190_)}.st146{clip-path:url(#SVGID_194_)}.st147{clip-path:url(#SVGID_198_)}.st148{fill:#666766}.st148,.st149{clip-path:url(#SVGID_202_)}.st150{fill:#262626}.st150,.st151{clip-path:url(#SVGID_206_)}.st152{fill:#666766}.st152,.st153{clip-path:url(#SVGID_210_)}.st154{fill:#fff}.st154,.st155{clip-path:url(#SVGID_214_)}.st156{fill:#fff}.st156,.st157{clip-path:url(#SVGID_218_)}.st158{fill:#e6e6e6}.st158,.st159{clip-path:url(#SVGID_222_)}.st160{fill:#192753}.st161{fill:#cccccb}.st161,.st162{clip-path:url(#SVGID_226_)}.st163{fill:#a6a5a5}.st163,.st164{clip-path:url(#SVGID_230_)}.st165{fill:#333}.st165,.st166{clip-path:url(#SVGID_234_)}.st167{fill:#cccccb}.st167,.st168{clip-path:url(#SVGID_238_)}.st169{fill:gray}.st169,.st170{clip-path:url(#SVGID_242_)}.st171{fill:#333}.st171,.st172{clip-path:url(#SVGID_246_)}.st173{fill:#f2f2f3}.st173,.st174{clip-path:url(#SVGID_258_)}.st175{fill:#fff}.st175,.st176{clip-path:url(#SVGID_262_)}.st177{fill:#dad9d9}.st177,.st178{clip-path:url(#SVGID_266_)}.st179{fill:#bfbfbf}.st179,.st180{clip-path:url(#SVGID_270_)}.st181{clip-path:url(#SVGID_282_)}.st182{clip-path:url(#SVGID_286_)}.st183{fill:#4d4d4e}.st183,.st184{clip-path:url(#SVGID_290_)}.st185{clip-path:url(#SVGID_294_)}.st186{clip-path:url(#SVGID_298_)}.st187{clip-path:url(#SVGID_302_)}.st188{fill:#666766}.st188,.st189{clip-path:url(#SVGID_306_)}.st190{fill:#262626}.st190,.st191{clip-path:url(#SVGID_310_)}.st192{fill:#666766}.st192,.st193{clip-path:url(#SVGID_314_)}.st194{fill:#fff}.st194,.st195{clip-path:url(#SVGID_318_)}.st196{fill:#fff}.st196,.st197{clip-path:url(#SVGID_322_)}.st198{fill:#e6e6e6}.st198,.st199{clip-path:url(#SVGID_326_)}.st200{fill:#13171b}.st201{clip-path:url(#SVGID_330_)}.st202{clip-path:url(#SVGID_332_)}.st203{clip-path:url(#SVGID_334_);fill:#999b9e}.st204{clip-path:url(#SVGID_336_);fill:url(#SVGID_337_)}.st205{opacity:.58;clip-path:url(#SVGID_339_)}.st206{clip-path:url(#SVGID_341_)}.st207{filter:url(#Adobe_OpacityMaskFilter)}.st208,.st209{clip-path:url(#SVGID_343_);fill:url(#SVGID_345_)}.st209{mask:url(#SVGID_344_);fill:url(#SVGID_346_)}.st210{clip-path:url(#SVGID_348_)}.st211{filter:url(#Adobe_OpacityMaskFilter_1_)}.st212,.st213{clip-path:url(#SVGID_350_);fill:url(#SVGID_352_)}.st213{mask:url(#SVGID_351_);fill:url(#SVGID_353_)}.st214{opacity:.4;clip-path:url(#SVGID_339_)}.st215{clip-path:url(#SVGID_355_)}.st216{filter:url(#Adobe_OpacityMaskFilter_2_)}.st217,.st218{clip-path:url(#SVGID_357_);fill:url(#SVGID_359_)}.st218{mask:url(#SVGID_358_);fill:url(#SVGID_360_)}.st219{opacity:.52;clip-path:url(#SVGID_339_)}.st220{clip-path:url(#SVGID_362_)}.st221{filter:url(#Adobe_OpacityMaskFilter_3_)}.st222,.st223{clip-path:url(#SVGID_364_);fill:url(#SVGID_366_)}.st223{mask:url(#SVGID_365_);fill:url(#SVGID_367_)}.st224{clip-path:url(#SVGID_369_)}.st225{filter:url(#Adobe_OpacityMaskFilter_4_)}.st226,.st227{clip-path:url(#SVGID_371_);fill:url(#SVGID_373_)}.st227{mask:url(#SVGID_372_);fill:url(#SVGID_374_)}.st228{clip-path:url(#SVGID_376_)}.st229{filter:url(#Adobe_OpacityMaskFilter_5_)}.st230,.st231{clip-path:url(#SVGID_378_);fill:url(#SVGID_380_)}.st231{mask:url(#SVGID_379_);fill:url(#SVGID_381_)}.st232{clip-path:url(#SVGID_383_)}.st233{filter:url(#Adobe_OpacityMaskFilter_6_)}.st234,.st235{clip-path:url(#SVGID_385_);fill:url(#SVGID_387_)}.st235{mask:url(#SVGID_386_);fill:url(#SVGID_388_)}.st236{clip-path:url(#SVGID_390_)}.st237{filter:url(#Adobe_OpacityMaskFilter_7_)}.st238,.st239{clip-path:url(#SVGID_392_);fill:url(#SVGID_394_)}.st239{mask:url(#SVGID_393_);fill:url(#SVGID_395_)}.st240{clip-path:url(#SVGID_397_)}.st241{filter:url(#Adobe_OpacityMaskFilter_8_)}.st242,.st243{clip-path:url(#SVGID_399_);fill:url(#SVGID_401_)}.st243{mask:url(#SVGID_400_);fill:url(#SVGID_402_)}.st244{clip-path:url(#SVGID_404_)}.st245{filter:url(#Adobe_OpacityMaskFilter_9_)}.st246,.st247{clip-path:url(#SVGID_406_);fill:url(#SVGID_408_)}.st247{mask:url(#SVGID_407_);fill:url(#SVGID_409_)}.st248{clip-path:url(#SVGID_411_)}.st249{filter:url(#Adobe_OpacityMaskFilter_10_)}.st250,.st251{clip-path:url(#SVGID_413_);fill:url(#SVGID_415_)}.st251{mask:url(#SVGID_414_);fill:url(#SVGID_416_)}.st252{clip-path:url(#SVGID_418_)}.st253{filter:url(#Adobe_OpacityMaskFilter_11_)}.st254,.st255{clip-path:url(#SVGID_420_);fill:url(#SVGID_422_)}.st255{mask:url(#SVGID_421_);fill:url(#SVGID_423_)}.st256{clip-path:url(#SVGID_425_)}.st257{filter:url(#Adobe_OpacityMaskFilter_12_)}.st258,.st259{clip-path:url(#SVGID_427_);fill:url(#SVGID_429_)}.st259{mask:url(#SVGID_428_);fill:url(#SVGID_430_)}.st260{clip-path:url(#SVGID_432_)}.st261{filter:url(#Adobe_OpacityMaskFilter_13_)}.st262,.st263{clip-path:url(#SVGID_434_);fill:url(#SVGID_436_)}.st263{mask:url(#SVGID_435_);fill:url(#SVGID_437_)}.st264{clip-path:url(#SVGID_439_)}.st265{filter:url(#Adobe_OpacityMaskFilter_14_)}.st266,.st267{clip-path:url(#SVGID_441_);fill:url(#SVGID_443_)}.st267{mask:url(#SVGID_442_);fill:url(#SVGID_444_)}.st268{clip-path:url(#SVGID_446_)}.st269{filter:url(#Adobe_OpacityMaskFilter_15_)}.st270,.st271{clip-path:url(#SVGID_448_);fill:url(#SVGID_450_)}.st271{mask:url(#SVGID_449_);fill:url(#SVGID_451_)}.st272{clip-path:url(#SVGID_453_)}.st273{filter:url(#Adobe_OpacityMaskFilter_16_)}.st274,.st275{clip-path:url(#SVGID_455_);fill:url(#SVGID_457_)}.st275{mask:url(#SVGID_456_);fill:url(#SVGID_458_)}.st276{clip-path:url(#SVGID_460_)}.st277{filter:url(#Adobe_OpacityMaskFilter_17_)}.st278,.st279{clip-path:url(#SVGID_462_);fill:url(#SVGID_464_)}.st279{mask:url(#SVGID_463_);fill:url(#SVGID_465_)}.st280{opacity:.3;clip-path:url(#SVGID_339_)}.st281{clip-path:url(#SVGID_467_)}.st282{filter:url(#Adobe_OpacityMaskFilter_18_)}.st283,.st284{clip-path:url(#SVGID_469_);fill:url(#SVGID_471_)}.st284{mask:url(#SVGID_470_);fill:url(#SVGID_472_)}.st285{clip-path:url(#SVGID_474_)}.st286{filter:url(#Adobe_OpacityMaskFilter_19_)}.st287,.st288{clip-path:url(#SVGID_476_);fill:url(#SVGID_478_)}.st288{mask:url(#SVGID_477_);fill:url(#SVGID_479_)}.st289{clip-path:url(#SVGID_481_)}.st290{filter:url(#Adobe_OpacityMaskFilter_20_)}.st291,.st292{clip-path:url(#SVGID_483_);fill:url(#SVGID_485_)}.st292{mask:url(#SVGID_484_);fill:url(#SVGID_486_)}.st293{opacity:.5;clip-path:url(#SVGID_339_)}.st294{clip-path:url(#SVGID_488_)}.st295{filter:url(#Adobe_OpacityMaskFilter_21_)}.st296,.st297{clip-path:url(#SVGID_490_);fill:url(#SVGID_492_)}.st297{mask:url(#SVGID_491_);fill:url(#SVGID_493_)}.st298{clip-path:url(#SVGID_495_)}.st299{filter:url(#Adobe_OpacityMaskFilter_22_)}.st300,.st301{clip-path:url(#SVGID_497_);fill:url(#SVGID_499_)}.st301{mask:url(#SVGID_498_);fill:url(#SVGID_500_)}.st302{clip-path:url(#SVGID_502_)}.st303{clip-path:url(#SVGID_504_)}.st304{clip-path:url(#SVGID_506_);fill:#999b9e}.st305{clip-path:url(#SVGID_508_);fill:url(#SVGID_509_)}.st306{opacity:.58;clip-path:url(#SVGID_511_)}.st307{clip-path:url(#SVGID_513_)}.st308{filter:url(#Adobe_OpacityMaskFilter_23_)}.st309,.st310{clip-path:url(#SVGID_515_);fill:url(#SVGID_517_)}.st310{mask:url(#SVGID_516_);fill:url(#SVGID_518_)}.st311{clip-path:url(#SVGID_520_)}.st312{filter:url(#Adobe_OpacityMaskFilter_24_)}.st313,.st314{clip-path:url(#SVGID_522_);fill:url(#SVGID_524_)}.st314{mask:url(#SVGID_523_);fill:url(#SVGID_525_)}.st315{opacity:.4;clip-path:url(#SVGID_511_)}.st316{clip-path:url(#SVGID_527_)}.st317{filter:url(#Adobe_OpacityMaskFilter_25_)}.st318,.st319{clip-path:url(#SVGID_529_);fill:url(#SVGID_531_)}.st319{mask:url(#SVGID_530_);fill:url(#SVGID_532_)}.st320{opacity:.52;clip-path:url(#SVGID_511_)}.st321{clip-path:url(#SVGID_534_)}.st322{filter:url(#Adobe_OpacityMaskFilter_26_)}.st323,.st324{clip-path:url(#SVGID_536_);fill:url(#SVGID_538_)}.st324{mask:url(#SVGID_537_);fill:url(#SVGID_539_)}.st325{clip-path:url(#SVGID_541_)}.st326{filter:url(#Adobe_OpacityMaskFilter_27_)}.st327,.st328{clip-path:url(#SVGID_543_);fill:url(#SVGID_545_)}.st328{mask:url(#SVGID_544_);fill:url(#SVGID_546_)}.st329{clip-path:url(#SVGID_548_)}.st330{filter:url(#Adobe_OpacityMaskFilter_28_)}.st331,.st332{clip-path:url(#SVGID_550_);fill:url(#SVGID_552_)}.st332{mask:url(#SVGID_551_);fill:url(#SVGID_553_)}.st333{clip-path:url(#SVGID_555_)}.st334{filter:url(#Adobe_OpacityMaskFilter_29_)}.st335,.st336{clip-path:url(#SVGID_557_);fill:url(#SVGID_559_)}.st336{mask:url(#SVGID_558_);fill:url(#SVGID_560_)}.st337{clip-path:url(#SVGID_562_)}.st338{filter:url(#Adobe_OpacityMaskFilter_30_)}.st339,.st340{clip-path:url(#SVGID_564_);fill:url(#SVGID_566_)}.st340{mask:url(#SVGID_565_);fill:url(#SVGID_567_)}.st341{clip-path:url(#SVGID_569_)}.st342{filter:url(#Adobe_OpacityMaskFilter_31_)}.st343,.st344{clip-path:url(#SVGID_571_);fill:url(#SVGID_573_)}.st344{mask:url(#SVGID_572_);fill:url(#SVGID_574_)}.st345{clip-path:url(#SVGID_576_)}.st346{filter:url(#Adobe_OpacityMaskFilter_32_)}.st347,.st348{clip-path:url(#SVGID_578_);fill:url(#SVGID_580_)}.st348{mask:url(#SVGID_579_);fill:url(#SVGID_581_)}.st349{clip-path:url(#SVGID_583_)}.st350{filter:url(#Adobe_OpacityMaskFilter_33_)}.st351,.st352{clip-path:url(#SVGID_585_);fill:url(#SVGID_587_)}.st352{mask:url(#SVGID_586_);fill:url(#SVGID_588_)}.st353{clip-path:url(#SVGID_590_)}.st354{filter:url(#Adobe_OpacityMaskFilter_34_)}.st355,.st356{clip-path:url(#SVGID_592_);fill:url(#SVGID_594_)}.st356{mask:url(#SVGID_593_);fill:url(#SVGID_595_)}.st357{clip-path:url(#SVGID_597_)}.st358{filter:url(#Adobe_OpacityMaskFilter_35_)}.st359,.st360{clip-path:url(#SVGID_599_);fill:url(#SVGID_601_)}.st360{mask:url(#SVGID_600_);fill:url(#SVGID_602_)}.st361{clip-path:url(#SVGID_604_)}.st362{filter:url(#Adobe_OpacityMaskFilter_36_)}.st363,.st364{clip-path:url(#SVGID_606_);fill:url(#SVGID_608_)}.st364{mask:url(#SVGID_607_);fill:url(#SVGID_609_)}.st365{clip-path:url(#SVGID_611_)}.st366{filter:url(#Adobe_OpacityMaskFilter_37_)}.st367,.st368{clip-path:url(#SVGID_613_);fill:url(#SVGID_615_)}.st368{mask:url(#SVGID_614_);fill:url(#SVGID_616_)}.st369{clip-path:url(#SVGID_618_)}.st370{filter:url(#Adobe_OpacityMaskFilter_38_)}.st371,.st372{clip-path:url(#SVGID_620_);fill:url(#SVGID_622_)}.st372{mask:url(#SVGID_621_);fill:url(#SVGID_623_)}.st373{clip-path:url(#SVGID_625_)}.st374{filter:url(#Adobe_OpacityMaskFilter_39_)}.st375,.st376{clip-path:url(#SVGID_627_);fill:url(#SVGID_629_)}.st376{mask:url(#SVGID_628_);fill:url(#SVGID_630_)}.st377{clip-path:url(#SVGID_632_)}.st378{filter:url(#Adobe_OpacityMaskFilter_40_)}.st379,.st380{clip-path:url(#SVGID_634_);fill:url(#SVGID_636_)}.st380{mask:url(#SVGID_635_);fill:url(#SVGID_637_)}.st381{opacity:.3;clip-path:url(#SVGID_511_)}.st382{clip-path:url(#SVGID_639_)}.st383{filter:url(#Adobe_OpacityMaskFilter_41_)}.st384,.st385{clip-path:url(#SVGID_641_);fill:url(#SVGID_643_)}.st385{mask:url(#SVGID_642_);fill:url(#SVGID_644_)}.st386{clip-path:url(#SVGID_646_)}.st387{filter:url(#Adobe_OpacityMaskFilter_42_)}.st388,.st389{clip-path:url(#SVGID_648_);fill:url(#SVGID_650_)}.st389{mask:url(#SVGID_649_);fill:url(#SVGID_651_)}.st390{clip-path:url(#SVGID_653_)}.st391{filter:url(#Adobe_OpacityMaskFilter_43_)}.st392,.st393{clip-path:url(#SVGID_655_);fill:url(#SVGID_657_)}.st393{mask:url(#SVGID_656_);fill:url(#SVGID_658_)}.st394{opacity:.5;clip-path:url(#SVGID_511_)}.st395{clip-path:url(#SVGID_660_)}.st396{filter:url(#Adobe_OpacityMaskFilter_44_)}.st397,.st398{clip-path:url(#SVGID_662_);fill:url(#SVGID_664_)}.st398{mask:url(#SVGID_663_);fill:url(#SVGID_665_)}.st399{clip-path:url(#SVGID_667_)}.st400{filter:url(#Adobe_OpacityMaskFilter_45_)}.st401,.st402{clip-path:url(#SVGID_669_);fill:url(#SVGID_671_)}.st402{mask:url(#SVGID_670_);fill:url(#SVGID_672_)}.st403{fill:#da306c}.st403,.st404{clip-path:url(#SVGID_674_)}.st405{clip-path:url(#SVGID_676_)}.st405,.st406{fill:#da306c}.st406,.st407{clip-path:url(#SVGID_678_)}.st408{clip-path:url(#SVGID_680_);fill:#da306c}.st409,.st410,.st411{fill-rule:evenodd;clip-rule:evenodd;fill:#010101}.st410,.st411{fill:#e4042a}.st411{fill:#233180}.st412{fill:#213262}.st413{fill:#b2b2b2}.st413,.st414{clip-path:url(#SVGID_682_)}.st415,.st416{clip-path:url(#SVGID_684_)}.st416,.st417{fill:#b2b2b2}.st417,.st418{clip-path:url(#SVGID_686_)}.st419,.st420{clip-path:url(#SVGID_688_)}.st420{fill:#b2b2b2}.st421{clip-path:url(#SVGID_690_)}.st421,.st422{fill:#62bb46}.st423{clip-path:url(#SVGID_692_)}.st424{clip-path:url(#SVGID_694_);fill:#62bb46}.st425{clip-path:url(#SVGID_696_)}.st426{fill:#ffcc40}.st427{fill:#00377b}.st428{fill:#0a1f8f}.st429{fill:#d7282f}</style><path d="M189.2 199.2c15.1 0 28.3-10.1 28.3-27.2s-13.2-27.2-28.3-27.2c-15.1 0-28.3 10.1-28.3 27.2s13.4 27.2 28.3 27.2zm-96.8-1h11l-25.1-52.5H67.8L44.5 198h9.7l5-11.9H87l5.4 12.1zm271.7-52.5h-39.7V198H365v-8.4h-31.3V176h26.6v-8.4h-26.6V154h30.4v-8.3zM224.8 193c2 1.7 8.6 6.3 19.7 6.3 11.4 0 20.5-6.1 20.5-15.6 0-19.9-28.9-13.6-28.9-24.4 0-3 2.6-5.6 9.1-5.6 8 0 13.2 3.5 15.1 5.2l3.9-7.6c-2.4-2.2-9.7-6.3-19-6.3-14 0-19.7 7.8-19.7 15.6 0 18.1 28.9 12.9 28.9 23.7 0 4.5-4.5 6.5-9.7 6.5-7.8 0-14.2-3.5-16.8-5.4l-3.1 7.6zm-91.3-38.9c7.8 0 12.3 4.3 14.7 6.5l6.5-6.3c-2-2.4-8.4-9.5-21.4-9.5-15.1 0-28.3 10.1-28.3 27.2s13.2 27.2 28.1 27.2c11.5 0 19.4-6.3 22-8.6l-5.2-7.3c-4.1 3.5-10.6 6.5-16.6 6.5-10.4 0-18.3-7.8-18.3-17.9.3-10 8.1-17.8 18.5-17.8zm55.7 35.8c-10.4 0-18.3-7.8-18.3-17.9 0-10.1 7.8-17.9 18.3-17.9s18.3 7.8 18.3 17.9-7.8 17.9-18.3 17.9zm99.3-35.8v44h9.3v-44h18.3v-8.4h-45.4v8.4h17.8zm-278.3-8.4H.9V198H38v-8.4H10.2v-43.9zm62.4 9.3 10.6 23.3H62.6l10-23.3z" style="fill:#0d2e1f"/><path d="M250.9 109.6c-1.1-.7-2-.7-3.2-1.1-1.5-.4-1.9-2-2.4-2.4-1.1-.4-2 1.1-2.6.9-.6-.2-.9-2.2-1.5-2.4-.9-.4-2 1.3-2.8.9-.6-.2-.9-2.2-1.5-2.4-1.1-.4-2 1.3-2.8 1.1-.6-.2-.7-2.4-1.3-2.6-1.1-.4-2.2 1.3-3.2 1.1-.6-.2-2-.4-3.9-1.5-.6-.4-1.7-1.3-1.7-1.3-.2 0-.6-.2-.6.7.2 2.2 4.1 3.7 8.4 5 4.3 1.3 8.8 2.4 11.4 3.7 1.7.7 2.2 1.7 1.7 2.4-.4.7-1.5.7-2.8.2-1.3-.6-1.5-1.7-2.2-1.9-.9-.2-2.2 1.7-3 1.5-.9-.2-1.1-2.4-2-2.6-1.1-.4-2.6 1.5-3.4 1.3-.7-.2-1.1-2.4-1.9-2.6-1.3-.4-2.6 1.7-3.4 1.5-.7-.2-1.3-2.4-1.9-2.8-1.3-.6-3 1.3-4.7.6-5.6-3.7-4.5-5.8-8.8-7.1-2.2-.6-5 .2-6.5.4-3.7.4-3.7-2.8-3.7-2.8 1.1.2 2.6.9 5.4-.2 3-1.1 4.8-1.3 8.8 0 3.4 1.1 5.4.2 6.5-.2.6-.2.9-.6 2 .2 1.1.7 2 1.5 2.6 1.1.7-.4.6-2.6 2-3.2.6-.2 2.4 1.5 3.2 1.3.7-.4.6-2.6 2-3.2.7-.2 2.4 1.5 3.2 1.3.7-.4.6-2.6 2-3.2.7-.2 2.4 1.5 3.2 1.3.7-.4.6-2.6 2-3.2.6-.2 2.4 1.5 3.2 1.3.7-.4.7-.9 1.3-2.4.2-.4.4-.6.7-.9.9-.7 2.2-2.2 1.5-3.9-.7-1.5-2.2-1.5-5.4-.7-2.6.6-19.4 4.3-19.4 4.3-2.6-4.8-4.3-1.7-8.2-2-2.4-.4-6.3-2.8-12.7 3-3.4-.9-6.3-.2-8.6 1.1-3.7-1.5-10.8-5.2-24.4-5.2-3.9 0-13 .7-27.6 4.7-3.7.9-7.1.7-8-1.5-.9-2.2 2-4.7 7.8-7.5 14-6.7 23.3-5 42.1-15.1 10.1-5.4 10.8-11.5 10.6-13 0-1.1-1.1-1.3-1.7-.6-3.4 4.7-4.3 4.3-5.4 3.4-1.5-1.5-2.4.7-3.9 2-1.1.9-1.3-.2-2.2-.7-1.7-1.1-3 2-4.3 2.6-1.5.7-1.9 0-2.4-.6-.4-.4-1.1-.4-1.5 0-3.2 3-3.7 2.6-4.7 1.7-.7-.7-1.1-1.3-3.2.7-1.1 1.3-3.2 2.6-3.7 1.1-.6-1.5-1.1-2.4-4.1.4-1.7 1.7-3 1.7-3.5.9-.6-.7-.4-2.8-3.2-.6-2.4 1.9-3.7 3.2-4.5 1.3-.7-1.9-2.6-.4-3.9 1.1-.7.7-1.9 2.4-3 .7-.9-1.7-2.4 0-4.5 2.2-1.1 1.1-1.9.7-3-.2-1.3-.9-2.6 2.4-4.5 4.3-.4.4-.9.6-2-.2-1.5-.9-3.7 4.1-4.3 5.2-1.1 2-2.2-.6-3.5 1.3-2.8 4.3-6 8.9-6.9 17.1-1.1 9.9 2.6 17.9 6.3 20.9 0 0-.4 1.1-.9 2.4-1.1 2.8-1.5 6.3-.2 8.9 1.3 2.4 4.3 6.5 5.4 2.6.6-1.9 1.1-1.7 2.8-.6 2.8 1.9 2-1.5 2.6-2.6.4-.7.9-.9 3.2.6 1.3.7 1.7-.4 2-1.9 1.1-4.8-1.1-6.1-3.4-6.5-1.7-.4-3.4 0-3.4 0 3.7-5.6 4.1-8.6 0-11.5.6-.4 1.1-.2 1.7 0 .9.4 1.9 1.1 2.4 2.2.6.9 1.5 3.2-.4 7.3.7 0 3.9.2 5.2 3.4 1.9.6 13.4 1.5 18.4.7 1.9-.4 2.6-2 4.5-3.7 2-1.9 4.3-3.9 6.3-2.4-3.5 1.5-6 4.3-6 7.6 0 2.6 1.1 3.7 3 5.2 1.7 1.5 2.2 3.7 2.8 5.4.7 2.2 2.4 2.2 2.8.2.6-3 1.3-2.4 2.6-1.1 1.3 1.5 2.4 1.3 2.4-.9 0-2 .6-3 3-.7.9.9 2 .9 2-1.1 0-2.6 1.1-2.2 2.6-1.3.6.4.9.7 1.1.6 1.1 0 1.9-2.2.9-3.9-.4-.9-1.1-2.2-6.9-3.4-1.9-.4-1.7-1.7-1.7-1.7 14.3.7 26.5-1.1 34.5-6 9.9 2.4 24.2 2.6 28.9 2.6 4.7 0 8.4-.2 11.2-1.7 4.7-1.6 4.2-3.8 2.7-4.7zm-29.6-22.4c.4-.7.9-1.1 1.5-1.1 1.1 0 1.7 1.1 1.7 1.5l-2.6.6c-.8.1-.8-.2-.6-1zm-6.7-.2c1.9 0 3 1.5 3.2 2 0 0-2.8.6-3.9.9-.7.2-1.3-.2-1.3-.7-.3-.7.5-2.2 2-2.2zm-75.8-16.7c1.3-.6 2.6-1.1 3.9-1.3.2 0 .4.2.4.4-.2.9-.4 1.9-.6 2.8 0 .2-.2.4-.6.2-.9-.6-2-1.1-3.2-1.5-.1-.3-.1-.4.1-.6zm-6 2.8c1.3-.6 2.6-1.1 3.9-1.3.2 0 .4.2.4.4-.2.9-.4 1.9-.6 2.8 0 .2-.2.4-.6.2-.9-.6-2-1.1-3.2-1.5-.3-.3-.3-.4.1-.6zm2.4 6.3c.2 0 .4.2.4.4-.2.9-.4 1.9-.6 2.8 0 .2-.2.4-.6.2-.9-.6-2-.9-3.2-1.5-.2-.2-.2-.4 0-.4 1.4-.9 2.7-1.3 4-1.5zm-2.4 5.2c-.2.9-.4 1.9-.6 2.8 0 .2-.2.4-.6.2-.9-.6-2-.9-3.2-1.5-.2-.2-.2-.4 0-.4 1.3-.6 2.6-1.1 3.9-1.3.3-.2.5 0 .5.2zm-5.4-7.8c1.3-.6 2.6-1.1 3.9-1.3.2 0 .4.2.4.4-.2.9-.4 1.9-.6 2.8 0 .2-.2.4-.6.2-.9-.6-2-.9-3.2-1.5-.3-.4-.3-.6.1-.6zm-4.1 4.7c1.3-.6 2.6-1.1 3.9-1.3.2 0 .4 0 .4.4-.2.9-.4 1.9-.6 2.8 0 .2-.2.4-.6.2-.9-.6-2-1.1-3.2-1.5-.3-.3-.3-.5.1-.6zm-1.7 5.4c1.3-.6 2.6-1.1 3.9-1.3.2 0 .4.2.4.4-.2.9-.4 1.9-.6 2.8 0 .2-.2.4-.6.2-.9-.6-2-1.1-3.2-1.5-.1-.3-.1-.5.1-.6zm.8 5.9c-.2-.2-.2-.4 0-.4 1.3-.6 2.6-1.1 3.9-1.3.2 0 .4.2.4.4-.2.9-.4 1.9-.6 2.8 0 .2-.2.4-.6.2-.9-.6-2-1.1-3.1-1.7zm7 6.7c0 .2-.2.4-.6.2-.9-.6-2-.9-3.2-1.5-.2-.2-.2-.4 0-.4 1.3-.6 2.6-1.1 3.9-1.3.2 0 .4 0 .4.4-.1.8-.3 1.7-.5 2.6zm-.3-8.2c-.2-.2-.2-.4 0-.4 1.3-.6 2.6-1.1 3.9-1.3.2 0 .4.2.4.4-.2.9-.4 1.9-.6 2.8 0 .2-.2.4-.6.2-.9-.6-2-1.1-3.1-1.7zm6.1 11.2c0 .2-.2.4-.6.2-.9-.6-2-1.1-3.2-1.5-.2-.2-.2-.4 0-.4 1.3-.6 2.6-1.1 3.9-1.3.2 0 .4.2.4.4.1.7-.1 1.7-.5 2.6zm1.3-5.8c0 .2-.2.4-.6.2-.9-.6-2-1.1-3.2-1.5-.2-.2-.2-.4 0-.4 1.3-.6 2.6-1.1 3.9-1.3.2 0 .4 0 .4.4.1.8-.1 1.7-.5 2.6zm6 2.8c-.2.9-.4 1.9-.6 2.8 0 .2-.2.4-.6.2-.9-.6-2-.9-3.2-1.5-.2-.2-.2-.4 0-.4 1.3-.6 2.6-1.1 3.9-1.3.3-.2.5 0 .5.2zm.2-3c-.9-.6-2-.9-3.2-1.5-.2-.2-.2-.4 0-.4 1.3-.6 2.6-1.1 3.9-1.3.2 0 .4.2.4.4-.2.9-.4 1.9-.6 2.8h-.5zm5.2 7.3c-.2.9-.4 1.9-.6 2.8 0 .2-.2.4-.6.2-.9-.6-2-.9-3.2-1.5-.2-.2-.2-.4 0-.4 1.3-.6 2.6-1.1 3.9-1.3.3-.2.5 0 .5.2zm1.3-6c-.2.9-.4 1.9-.6 2.8 0 .2-.2.4-.6.2-.9-.6-2-1.1-3.2-1.5-.2-.2-.2-.4 0-.4 1.3-.6 2.6-1.1 3.9-1.3.3-.1.5.1.5.2zm.7-3.5c0 .2-.2.4-.6.2-.9-.6-2-.9-3.2-1.5-.2-.2-.2-.4 0-.4 1.3-.6 2.6-1.1 3.9-1.3.2 0 .4.2.4.4-.1.7-.3 1.7-.5 2.6zm4.1 10.2c0 .2-.2.4-.6.2-.9-.6-2-1.1-3.2-1.5-.2-.2-.2-.4 0-.4 1.3-.6 2.6-1.1 3.9-1.3.2 0 .4.2.4.4-.1.8-.3 1.7-.5 2.6zm1.3-5.7c0 .2-.2.4-.6.2-.9-.6-2-1.1-3.2-1.5-.2-.2-.2-.4 0-.4 1.3-.6 2.6-1.1 3.9-1.3.2 0 .4 0 .4.4-.1.7-.3 1.6-.5 2.6zm1-5.8c-.9-.6-2-1.1-3.2-1.5-.2-.2-.2-.4 0-.4 1.3-.6 2.6-1.1 3.9-1.3.2 0 .4.2.4.4-.2.9-.4 1.9-.6 2.8-.2 0-.3.2-.5 0zm5.2 7.4c-.2.9-.4 1.9-.6 2.8 0 .2-.2.4-.6.2-.9-.6-2-1.1-3.2-1.5-.2-.2-.2-.4 0-.4 1.3-.6 2.6-1.1 3.9-1.3.5-.1.7.1.5.2zm1.3-5.7c-.2.9-.4 1.9-.6 2.8 0 .2-.2.4-.6.2-.9-.6-2-.9-3.2-1.5-.2-.2-.2-.4 0-.4 1.3-.6 2.6-1.1 3.9-1.3.3-.2.5 0 .5.2zm.2-2.8c-.9-.6-2-1.1-3.2-1.5-.2-.2-.2-.4 0-.4 1.3-.6 2.6-1.1 3.9-1.3.2 0 .4.2.4.4-.2.9-.4 1.9-.6 2.8-.2 0-.3.2-.5 0zm5.2 7.8c-.2.9-.4 1.9-.6 2.8 0 .2-.2.4-.6.2-.9-.6-2-.9-3.2-1.5-.2-.2-.2-.4 0-.4 1.3-.6 2.6-1.1 3.9-1.3.5-.2.7 0 .5.2zm1.3-5.8c-.2.9-.4 1.9-.6 2.8 0 .2-.2.4-.6.2-.9-.6-2-.9-3.2-1.5-.2-.2-.2-.4 0-.4 1.3-.6 2.6-1.1 3.9-1.3.3-.1.5 0 .5.2zm.6-2.8c0 .2-.2.4-.6.2-.9-.6-2-1.1-3.2-1.5-.2-.2-.2-.4 0-.4 1.3-.6 2.6-1.1 3.9-1.3.2 0 .4 0 .4.4 0 .8-.2 1.7-.5 2.6zm4.8 9c-.2.9-.4 1.9-.6 2.8 0 .2-.2.4-.6.2-.9-.6-2-1.1-3.2-1.5-.2-.2-.2-.4 0-.4 1.3-.6 2.6-1.1 3.9-1.3.3-.2.5-.2.5.2zm1.3-6c-.2.9-.4 1.9-.6 2.8 0 .2-.2.4-.6.2-.9-.6-2-1.1-3.2-1.5-.2-.2-.2-.4 0-.4 1.3-.6 2.6-1.1 3.9-1.3.3-.2.5 0 .5.2zm1.3-5.6c-.2.9-.4 1.9-.6 2.8 0 .2-.2.4-.6.2-.9-.6-2-1.1-3.2-1.5-.2-.2-.2-.4 0-.4 1.3-.6 2.6-1.1 3.9-1.3.3-.1.5 0 .5.2zm4.5 9.7c0 .2-.2.4-.6.2-.9-.6-2-.9-3.2-1.5-.2-.2-.2-.4 0-.4 1.3-.6 2.6-1.1 3.9-1.3.2 0 .4.2.4.4-.2.8-.3 1.7-.5 2.6zm1.8-8.6c-.2.9-.4 1.9-.6 2.8 0 .2-.2.4-.6.2-.9-.6-2-1.1-3.2-1.5-.2-.2-.2-.4 0-.4 1.3-.6 2.6-1.1 3.9-1.3.5-.1.7-.1.5.2zm6.2 2.1c-.2.9-.4 1.9-.6 2.8 0 .2-.2.4-.6.2-.9-.6-2-.9-3.2-1.5-.2-.2-.2-.4 0-.4 1.3-.6 2.6-1.1 3.9-1.3.5-.2.7 0 .5.2z" style="fill:#08552c"/><path d="M215.5 97.3c-3.9-1.3-5.8-1.1-8.8 0-2.8 1.1-4.3.4-5.4.2 0 0-.2 3.4 3.7 2.8 1.7-.2 4.3-.9 6.5-.4 4.3 1.3 3.2 3.2 8.8 7.1 1.7.9 3.4-.9 4.7-.6.7.2 1.1 2.6 1.9 2.8.7.2 2-1.7 3.4-1.5.7.2 1.1 2.6 1.9 2.6.7.2 2-1.7 3.4-1.3.9.2.9 2.4 2 2.6.7.2 2-1.7 3-1.5.7.2.9 1.3 2.2 1.9 1.1.6 2.2.6 2.8-.2.6-.9-.2-1.7-1.7-2.4-2.6-1.1-7.1-2.4-11.4-3.7-4.3-1.3-8.2-2.8-8.4-5-.2-.9.4-.7.6-.7-1.7-1.3-2-2.4-1.9-3-.2 0-.4.2-.6.2-1.5.3-3.3 1.2-6.7.1z" style="fill:#e21b46"/></svg>
